<?xml version="1.0" standalone="no"?><!DOCTYPE svg PUBLIC "-//W3C//DTD SVG 1.1//EN" "http://www.w3.org/Graphics/SVG/1.1/DTD/svg11.dtd"><svg t="1711941867769" class="icon" viewBox="0 0 1024 1024" version="1.1" xmlns="http://www.w3.org/2000/svg" p-id="18605" xmlns:xlink="http://www.w3.org/1999/xlink" width="200" height="200"><path d="M536.576 835.7888h227.6864c8.192 0.1536 15.6672 4.8128 19.3024 12.1344a25.2928 25.2928 0 0 1 2.048 15.0016 22.016 22.016 0 0 1-14.6432 17.3568 31.744 31.744 0 0 1-11.1616 1.1776H259.6864a22.272 22.272 0 0 1-16.5376-7.2192 23.8592 23.8592 0 0 1 1.8432-33.024 21.76 21.76 0 0 1 12.288-5.3248c93.0304-0.256 186.1632 0 279.2448-0.1024z m3.4816-676.0448c13.3632 6.144 24.2688 16.64 31.0272 29.696a64.8704 64.8704 0 0 1-12.5952 76.288c43.1616 51.712 86.6816 103.2192 130.048 154.88 34.2528-10.1376 68.608-20.1216 102.8608-30.4128a65.1264 65.1264 0 0 1 18.3808-63.488 66.3552 66.3552 0 0 1 107.8272 24.8832 65.2288 65.2288 0 0 1-25.9584 77.312 66.56 66.56 0 0 1-40.192 10.5472l-51.5072 287.3856c-2.0992 11.1104-3.584 22.3744-6.656 33.28-5.9392 18.944-21.3504 33.3824-40.6016 38.0416-8.3968 1.536-16.896 2.0992-25.3952 1.6384h-443.904a56.7296 56.7296 0 0 1-50.432-33.1776 101.2736 101.2736 0 0 1-6.2464-25.7536L172.6976 439.4496A66.1504 66.1504 0 0 1 102.4 377.1392v-3.328c0.256-28.672 19.0464-53.8624 46.4384-62.3104 14.848-4.5568 30.72-3.84 45.056 2.048a65.1776 65.1776 0 0 1 39.5264 73.728c33.9968 10.9568 68.0448 21.76 102.0416 32.6144l129.9968-154.2144a65.1264 65.1264 0 0 1-4.096-88.6784 66.9184 66.9184 0 0 1 78.6944-17.2544z m61.5424 352.4608a15.8208 15.8208 0 0 0-14.2848 5.12l-75.264 85.76-75.3664-85.8112a15.8208 15.8208 0 0 0-26.112 3.9424 13.4144 13.4144 0 0 0 2.56 14.0288l87.1424 99.2256c2.9184 3.2768 7.168 5.12 11.776 5.12 4.608 0.1024 8.96-1.8432 11.9296-5.12l86.8864-99.2256a13.4144 13.4144 0 0 0 2.56-14.0288 15.0016 15.0016 0 0 0-11.8272-9.0112z" fill="#4983FF" p-id="18606"></path></svg>