<svg t="1712632758589" viewBox="0 0 1641 700" version="1.1" xmlns="http://www.w3.org/2000/svg"
  xmlns:xlink="http://www.w3.org/1999/xlink" width="457.2265625" height="200">
  <path
    d="M616.31768 334.48299a26.114982 26.114982 0 0 0-26.114982 26.114983v260.523062A26.114982 26.114982 0 0 0 616.31768 647.862777h877.463403a26.114982 26.114982 0 0 0 26.114982-26.114982V359.553373A26.114982 26.114982 0 0 0 1493.781083 334.48299z m0-31.337978h877.463403a57.452961 57.452961 0 0 1 57.452961 57.452961v260.523062a57.452961 57.452961 0 0 1-57.452961 57.452961h-877.463403a57.452961 57.452961 0 0 1-57.452961-57.452961V359.553373a57.452961 57.452961 0 0 1 57.452961-57.45296z"
    fill="#0c6eca" p-id="22902"></path>
  <path
    d="M678.993638 308.368008m62.675957 0l731.219502 0q62.675957 0 62.675958 62.675958l0 229.811843q0 62.675957-62.675958 62.675958l-731.219502 0q-62.675957 0-62.675957-62.675958l0-229.811843q0-62.675957 62.675957-62.675958Z"
    fill="#0c6eca" p-id="22903"></path>
  <path
    d="M980.256073 522.510863H940.14346v81.687664h-52.229965V371.043966h97.565574q84.821462 2.298118 88.16418 73.12195c0.62676 53.065644-30.502299 79.389546-93.387176 78.344947z m-4.387317-111.354285H940.14346v71.032752h34.889616c27.786341 0 41.783972-12.744111 41.783972-35.934216s-13.99763-34.262857-40.948292-34.889616z m247.361111 29.87554l-17.131428 43.45533a40.530452 40.530452 0 0 0-20.891986-6.267595c-22.563345 0-34.262857 14.83331-35.098536 41.783971v83.567943h-50.976445v-167.135886H1149.063318v30.711219a46.589128 46.589128 0 0 1 44.708849-34.889616 58.07972 58.07972 0 0 1 29.4577 8.774634z m193.041949 81.478745q-3.133798 83.567943-91.297978 85.866061-86.910661-5.431916-91.297978-85.866061 4.387317-85.030382 92.342577-87.955261 87.119581 2.298118 90.253379 87.955261z m-53.065644 0c0-31.755818-13.788711-48.051567-39.276933-48.887247s-37.187735 16.295749-37.187735 48.887247 13.161951 47.006968 37.187735 47.842647 39.276933-16.922508 39.276933-47.842647z"
    fill="#FFFFFF" p-id="22904"></path>
  <path d="M177.585979 370.626126a271.595815 208.710938 0 1 0 543.19163 0 271.595815 208.710938 0 1 0-543.19163 0Z"
    fill="#0c6eca" p-id="22905"></path>
  <path
    d="M449.181794 595.006053c-158.361252 0-287.264804-100.699371-287.264804-224.379927S290.820542 146.455118 449.181794 146.455118s287.264804 100.699371 287.264805 224.379928-128.903552 224.171007-287.264805 224.171007z m0-417.839715c-141.020904 0-255.926826 86.701741-255.926826 193.041948S308.16089 564.294834 449.181794 564.294834s255.926826-86.492821 255.926826-193.041949-114.905922-193.668708-255.926826-193.668708z"
    fill="#0c6eca" p-id="22906"></path>
  <path
    d="M696.542906 662.905007H191.16577L94.018036 198.894003l186.774353 171.732123 166.718046-292.069961 167.344806 292.069961 189.490311-171.732123-107.802646 464.011004z"
    fill="#db8e0d" p-id="22907"></path>
  <path
    d="M696.542906 678.573996H191.16577a15.877909 15.877909 0 0 1-15.46007-12.535191L78.766886 202.027801A15.668989 15.668989 0 0 1 104.464029 188.23909l172.358882 158.570172 157.107733-275.983132a15.25115 15.25115 0 0 1 13.579791-7.938955 15.877909 15.877909 0 0 1 13.579791 7.730035l157.734493 275.356373L793.899559 188.23909a15.460069 15.460069 0 0 1 18.384948-1.880279 16.086829 16.086829 0 0 1 7.312195 17.131429l-107.593727 462.966405a15.877909 15.877909 0 0 1-15.460069 12.117351zM203.909881 647.862777h480.515673l93.596096-403.215325-152.511496 138.304945a16.295749 16.295749 0 0 1-12.953031 3.760558 15.460069 15.460069 0 0 1-11.072753-7.521115L447.510435 110.103063 294.372179 378.356161a15.668989 15.668989 0 0 1-11.072752 7.730034 16.713589 16.713589 0 0 1-13.161951-3.969477l-150.840137-138.722786z"
    fill="#db8e0d" p-id="22908"></path>
  <path
    d="M72.91713 198.476163A57.452961 57.452961 0 0 1 15.673089 141.023202 56.617281 56.617281 0 0 1 72.91713 83.779161 41.783972 41.783972 0 0 1 83.572043 83.779161a57.244041 57.244041 0 0 1 44.49993 40.112613 59.12432 59.12432 0 0 1-8.983554 52.021044 59.33324 59.33324 0 0 1-46.171289 22.563345z"
    fill="#db8e0d" p-id="22909"></path>
  <path
    d="M73.12605 214.145152A73.12195 73.12195 0 0 1 0.0041 141.023202a72.286271 72.286271 0 0 1 73.12195-72.91303 48.469407 48.469407 0 0 1 12.535191 0A71.450591 71.450591 0 0 1 142.905283 119.295537a74.16655 74.16655 0 0 1-11.281673 66.018675 74.375469 74.375469 0 0 1-58.49756 28.83094z m0-114.697002a41.783972 41.783972 0 0 0-41.783972 41.783972 41.783972 41.783972 0 0 0 41.783972 41.783972 41.783972 41.783972 0 0 0 39.903693-54.737003 41.783972 41.783972 0 0 0-32.591498-28.413101 35.098536 35.098536 0 0 0-7.312195-0.41784z"
    fill="#db8e0d" p-id="22910"></path>
  <path
    d="M449.181794 141.023202a62.675957 62.675957 0 0 1-62.675957-62.675957 62.675957 62.675957 0 0 1 62.675957-62.675958 62.675957 62.675957 0 1 1 0 125.351915z"
    fill="#db8e0d" p-id="22911"></path>
  <path
    d="M449.181794 156.692191a78.344947 78.344947 0 1 1 78.344947-78.136026 78.344947 78.344947 0 0 1-78.344947 78.136026z m0-125.351914a47.006968 47.006968 0 1 0 0 94.222856 46.380208 46.380208 0 0 0 47.006968-46.798048A47.006968 47.006968 0 0 0 449.181794 31.549197z"
    fill="#db8e0d" p-id="22912"></path>
  <path
    d="M449.181794 579.337064a89.417699 89.417699 0 0 1-83.567943-93.805016 88.16418 88.16418 0 0 1 83.567943-94.013936 89.626619 89.626619 0 0 1 83.567943 94.013936 88.79094 88.79094 0 0 1-83.567943 93.805016z"
    fill="#0c6eca" p-id="22913"></path>
  <path
    d="M449.181794 595.006053a104.459929 104.459929 0 0 1-99.236932-109.474005A104.459929 104.459929 0 0 1 449.181794 376.266962a104.459929 104.459929 0 0 1 99.236933 109.682925 104.459929 104.459929 0 0 1-99.236933 109.056166z m0-188.027872a72.91303 72.91303 0 0 0-67.898954 78.344947A73.74871 73.74871 0 0 0 449.181794 564.294834a73.74871 73.74871 0 0 0 67.898954-78.136027 73.74871 73.74871 0 0 0-67.898954-78.971706z"
    fill="#0c6eca" p-id="22914"></path>
  <path
    d="M428.289808 454.194069m-20.891985 0a20.891986 20.891986 0 1 0 41.783971 0 20.891986 20.891986 0 1 0-41.783971 0Z"
    fill="#FFFFFF" p-id="22915"></path>
  <path
    d="M825.446458 198.476163a57.870801 57.870801 0 0 1-57.661881-57.452961A56.826201 56.826201 0 0 1 825.446458 83.779161a64.556236 64.556236 0 0 1 12.117352 1.253519 55.990522 55.990522 0 0 1 41.783971 38.650174 57.035121 57.035121 0 0 1-54.528083 74.793309z"
    fill="#db8e0d" p-id="22916"></path>
  <path
    d="M825.446458 214.145152A73.33087 73.33087 0 0 1 752.115588 141.023202a72.286271 72.286271 0 0 1 73.33087-72.91303 81.060905 81.060905 0 0 1 15.04223 1.462439 71.868431 71.868431 0 0 1 54.528083 49.722926 72.704111 72.704111 0 0 1-69.570313 94.849615z m0-114.697002a41.783972 41.783972 0 0 0-41.783972 41.783972A41.783972 41.783972 0 0 0 858.664715 167.347104a41.783972 41.783972 0 0 0 6.267596-38.232334 41.783972 41.783972 0 0 0-30.711219-27.995261 43.037491 43.037491 0 0 0-8.774634-1.671359z"
    fill="#db8e0d" p-id="22917"></path>
</svg>